<svg width="80" height="80" viewBox="0 0 80 80" fill="none" xmlns="http://www.w3.org/2000/svg">
<path d="M30.6675 53.8658L30.6674 53.8657C29.9014 53.4536 29.3141 52.9418 28.9213 52.2963C28.5284 51.6505 28.3345 50.8783 28.3437 49.9528L30.6675 53.8658ZM30.6675 53.8658C31.3153 54.2136 32.0033 54.5139 32.7053 54.7369M30.6675 53.8658L49.7642 53.5617M49.7642 53.5617L49.8172 53.6465C48.0538 54.7488 46.0872 55.2275 44.0682 55.4918C40.2364 55.9938 36.4311 55.9224 32.7053 54.7369M49.7642 53.5617L49.8172 53.6465C50.474 53.2357 50.9846 52.7469 51.3269 52.1524C51.6695 51.5575 51.8402 50.8626 51.826 50.0453C51.7843 47.6682 51.7927 45.291 51.8011 42.9128C51.8046 41.9378 51.8081 40.9626 51.8081 39.9872V39.984C51.8081 39.0207 51.8064 38.0575 51.8047 37.0943C51.8003 34.6501 51.796 32.206 51.8195 29.7616L51.8195 29.7615C51.8312 28.4688 51.3384 27.4314 50.2896 26.7558L50.2895 26.7558C49.3809 26.1708 48.3925 25.6357 47.3599 25.3047L47.3599 25.3047C43.6424 24.1144 39.8272 24.015 35.996 24.5482L35.9959 24.5482M49.7642 53.5617L35.9959 24.5482M32.7053 54.7369L32.7356 54.6416L32.7053 54.7369C32.7053 54.7369 32.7053 54.7369 32.7053 54.7369ZM35.9959 24.5482C34.123 24.8092 32.2861 25.2551 30.608 26.2131C29.8641 26.6373 29.2922 27.1473 28.909 27.7827C28.5256 28.4185 28.3353 29.173 28.3437 30.079C28.4026 36.7036 28.4058 43.3282 28.3437 49.9527L35.9959 24.5482ZM33.6159 45.0089C33.582 44.9988 33.548 44.9889 33.5142 44.9791C33.4174 44.951 33.321 44.923 33.2265 44.8879M33.6159 45.0089L33.2613 44.7941L33.2265 44.8879M33.6159 45.0089C37.0471 46.0676 40.5536 46.1527 44.052 45.5636M33.6159 45.0089L44.052 45.5636M33.2265 44.8879C31.2433 44.1499 31.1288 43.9863 31.1288 41.8886V39.9697L33.5391 44.8822C33.5736 44.8922 33.6087 44.9024 33.6446 44.9132L33.6454 44.9134C37.0591 45.9667 40.5496 46.052 44.0354 45.465C45.2078 45.2675 46.3412 44.8235 47.4786 44.3779C47.7608 44.2674 48.0432 44.1568 48.3266 44.0498C48.4499 44.0029 48.595 43.8839 48.7136 43.7342C48.8329 43.5837 48.9106 43.421 48.9199 43.2982C48.9762 42.5085 48.9674 41.7154 48.9581 40.8669C48.955 40.5839 48.9518 40.2947 48.951 39.9974C46.0565 41.2421 43.1025 41.6172 40.1104 41.6237C37.1142 41.6302 34.1557 41.2725 31.2288 40.0131V41.8886C31.2288 42.4138 31.2361 42.811 31.2768 43.1256C31.3174 43.4387 31.3903 43.6613 31.5159 43.8408C31.6415 44.0204 31.8265 44.1664 32.1085 44.3143C32.3916 44.4628 32.7648 44.6094 33.2613 44.7941L33.2265 44.8879ZM33.2567 37.7305C33.3818 37.777 33.5091 37.8189 33.6375 37.8596C37.0214 38.9061 40.4792 38.9671 43.9435 38.4338C45.1133 38.2531 46.2533 37.8381 47.3927 37.4233C47.5834 37.3539 47.774 37.2845 47.9648 37.2162C48.1504 37.1495 48.3771 37.018 48.5607 36.8633C48.6521 36.7861 48.7304 36.7053 48.787 36.6266C48.8443 36.5468 48.8748 36.4755 48.8809 36.4165L48.8809 36.4164C48.9681 35.5793 48.9536 34.7347 48.939 33.8783C48.9342 33.5978 48.9294 33.3161 48.9282 33.0329C42.9934 35.0819 37.1753 35.1057 31.2288 33.0393V34.8248C31.2288 35.3505 31.2356 35.7476 31.2759 36.0617C31.3159 36.3745 31.388 36.5964 31.5129 36.7753C31.6378 36.9544 31.8221 37.1 32.1038 37.2481C32.3866 37.3968 32.7597 37.5441 33.2567 37.7305ZM33.2567 37.7305C33.2567 37.7305 33.2567 37.7305 33.2567 37.7305L33.2215 37.8241L33.2564 37.7304C33.2565 37.7304 33.2566 37.7304 33.2567 37.7305ZM31.1667 29.3169C31.6996 30.0353 32.374 30.4491 33.5784 30.8002L33.5785 30.8002C37.4891 31.9419 41.4399 31.9522 45.3953 31.0914L31.1667 29.3169ZM31.1667 29.3169C31.2799 29.2371 31.3922 29.1512 31.5025 29.0668C31.579 29.0083 31.6546 28.9504 31.729 28.8959C31.9419 28.7395 32.1531 28.6025 32.3797 28.5174L32.3797 28.5174C37.4786 26.6016 42.5897 26.5968 47.6849 28.5336C47.9023 28.6164 48.1052 28.7463 48.3229 28.903C48.3945 28.9545 48.4683 29.0094 48.5447 29.0662C48.6684 29.1581 48.7988 29.2551 48.9374 29.3508C47.8894 30.4747 46.6439 30.819 45.3953 31.0914L31.1667 29.3169ZM44.052 45.5636C45.2356 45.3642 46.3814 44.9153 47.5197 44.4693M44.052 45.5636L47.5197 44.4693M47.5197 44.4693C47.8007 44.3592 48.0813 44.2493 48.3619 44.1434L47.5197 44.4693ZM31.2288 47.1581C37.1339 49.2316 42.9957 49.2169 48.9526 47.1349C48.9535 47.4056 48.9567 47.6722 48.9599 47.9357C48.9694 48.72 48.9785 49.4763 48.9248 50.2296C48.914 50.3789 48.8459 50.5703 48.743 50.7409C48.639 50.9134 48.5111 51.0455 48.3944 51.0956C48.2239 51.1687 48.0535 51.2428 47.883 51.317C46.8078 51.7848 45.7303 52.2536 44.6106 52.4703C40.9721 53.1745 37.3297 53.1122 33.7438 52.0634L33.7432 52.0633C33.5616 52.0114 33.3827 51.9549 33.2077 51.8891C32.7309 51.7082 32.3708 51.5622 32.0966 51.4137C31.8235 51.2657 31.6422 51.1187 31.518 50.939C31.3939 50.7593 31.3206 50.5381 31.2791 50.2309C31.2375 49.9224 31.2288 49.5349 31.2288 49.026V47.1581Z" fill="white" stroke="white" stroke-width="0.2"/>
<path d="M32.6907 0.710937L32.6845 0.682313L32.6637 0.661602L32.6621 0.659966L32.6234 0.621279L32.5699 0.633054C31.8681 0.787639 31.1728 0.938035 30.4827 1.08733C28.793 1.45282 27.134 1.81169 25.4846 2.20922L25.4846 2.20923C25.0896 2.3047 24.8151 2.52489 24.6593 2.82484C24.505 3.12186 24.4718 3.48732 24.5373 3.86945C24.6421 4.48584 24.7754 5.09809 24.908 5.70692C24.9376 5.84272 24.9671 5.97834 24.9963 6.1138L24.9963 6.11384C25.1883 7.00326 25.3832 7.89281 25.5804 8.79314C25.6808 9.25114 25.7817 9.71193 25.8832 10.1769L25.9046 10.275L26.0026 10.2532C26.9238 10.0487 27.7338 9.86868 28.5847 9.67886L28.6805 9.65748L28.6609 9.56129L27.8789 5.72292C38.5729 9.74928 47.3614 16.3429 55.3376 24.1272L55.4082 24.1961L55.4781 24.1264C56.1184 23.4878 56.7054 22.9008 57.4154 22.1908L57.4302 22.1759L57.5052 22.1009L57.426 22.0305C56.7192 21.4022 56.0178 20.7677 55.3165 20.1333C53.6958 18.6671 52.0757 17.2016 50.3921 15.8151C48.7133 14.4317 46.9683 13.1261 45.2167 11.8156C44.4945 11.2752 43.7712 10.734 43.051 10.1862C43.9685 9.68996 44.8941 9.18891 45.8404 8.67596L45.9255 8.62986L45.8822 8.54332C45.6753 8.12939 45.4781 7.73427 45.2828 7.34279L45.2766 7.33035C45.0834 6.9431 44.8918 6.55926 44.6943 6.1642L44.6483 6.07214L44.5576 6.1208C43.8962 6.47571 43.2475 6.82286 42.6028 7.16782C42.0495 7.46394 41.4991 7.75844 40.9464 8.05485L40.8597 8.10135L40.9047 8.18879C40.988 8.35045 41.0652 8.49997 41.1373 8.63975C41.2205 8.80098 41.297 8.94927 41.3686 9.08829C38.891 7.78377 36.4126 6.47764 33.9333 5.17107C33.0931 4.72829 32.2528 4.28546 31.4124 3.84263L33.1193 3.45277L33.2052 3.43313L33.1965 3.34539C33.1879 3.25841 33.1824 3.18282 33.1773 3.11271C33.1753 3.08432 33.1733 3.05682 33.1711 3.02983C33.1639 2.93754 33.1554 2.85214 33.1377 2.7671C33.0378 2.28737 32.9323 1.8084 32.813 1.26677C32.7738 1.08899 32.7332 0.90446 32.6907 0.710937Z" fill="white" stroke="white" stroke-width="0.2"/>
<path d="M57.6617 56.4934L57.7338 56.5682L57.8059 56.4933C65.544 48.4418 71.9355 39.6489 75.9746 29.1048C76.2164 29.8901 76.416 30.5359 76.6287 31.2225L76.6577 31.3161L76.7519 31.2889C77.287 31.1347 77.7892 30.9893 78.2954 30.8428C78.6267 30.747 78.9596 30.6506 79.3045 30.551L79.4007 30.5232L79.3728 30.427C79.1823 29.7705 78.9953 29.1208 78.8098 28.4763C78.328 26.8022 77.8562 25.1632 77.3599 23.5323C77.2479 23.1635 77.034 22.8871 76.7492 22.7283C76.4646 22.5695 76.1189 22.5338 75.7534 22.6284L75.7534 22.6284C74.265 23.0141 72.7835 23.4305 71.2737 23.8549C70.6562 24.0285 70.034 24.2033 69.4046 24.378L69.3077 24.4049L69.3352 24.5017C69.5275 25.1785 69.7049 25.798 69.8808 26.4125C69.9444 26.6345 70.0077 26.8558 70.0716 27.079L70.0989 27.1747L70.1947 27.1478C70.546 27.0491 70.8699 26.9588 71.1787 26.8727C71.5352 26.7733 71.8717 26.6795 72.2073 26.5849C72.6246 26.4679 73.0411 26.3494 73.504 26.2177C73.6591 26.1735 73.8195 26.1279 73.9868 26.0804C70.2372 37.1601 63.6607 46.1971 55.8124 54.4324L55.7463 54.5017L55.8127 54.5707C56.0579 54.8256 56.296 55.0733 56.5341 55.3211C56.9014 55.7033 57.2686 56.0854 57.6617 56.4934Z" fill="white" stroke="white" stroke-width="0.2"/>
<path d="M23.6046 57.8624C31.6003 65.5415 40.3924 71.946 50.932 75.9725L57.2974 75.5912L57.3954 75.5712C57.3954 75.5712 57.3954 75.5712 57.3954 75.5712C57.344 75.3191 57.2724 75.0703 57.2021 74.8262C57.1972 74.809 57.1922 74.7919 57.1873 74.7748L57.1873 74.7748C56.7657 73.3108 56.343 71.8479 55.9099 70.3489C55.8202 70.0385 55.7301 69.7265 55.6394 69.4127L55.6117 69.3167L55.5157 69.3443C54.9467 69.5081 54.4137 69.6609 53.892 69.8105C53.5795 69.9001 53.2711 69.9885 52.9615 70.0774L52.8662 70.1047L52.8928 70.2003C52.9275 70.325 52.9612 70.4461 52.994 70.5643C53.1517 71.1312 53.2903 71.6297 53.4312 72.1282L53.4313 72.1283C53.5942 72.7016 53.7571 73.2734 53.961 73.9874C42.8753 70.2377 33.8486 63.6586 25.6866 55.8934L25.6181 55.8282L25.5492 55.8929C25.2022 56.2189 24.8691 56.5314 24.5395 56.8407C24.2281 57.1328 23.9197 57.4221 23.6054 57.7174L23.5286 57.7894L23.6046 57.8624Z" fill="white" stroke="white" stroke-width="0.2"/>
<path d="M22.1844 22.5922L22.2551 22.664C22.6028 23.0169 22.9338 23.3533 23.2649 23.6896C23.5478 23.977 23.8306 24.2643 24.1237 24.562L24.1925 24.6319L24.1241 24.702C16.3399 32.6782 9.74634 41.4714 5.71512 52.1653C6.50379 52.0028 7.25091 51.8491 7.99552 51.6959C8.51157 51.5898 9.02641 51.4839 9.55305 51.3755L9.64936 51.3557L9.67081 51.4516C9.72151 51.6785 9.77142 51.9018 9.82114 52.1242C9.96074 52.7486 10.0988 53.3661 10.2484 54.037L10.2703 54.135L10.1721 54.1564C9.65714 54.2687 9.14614 54.3802 8.63787 54.4911C7.51671 54.7357 6.40883 54.9774 5.30098 55.2184C5.17872 55.2451 5.05594 55.273 4.93271 55.3011C4.57724 55.382 4.21802 55.4638 3.85646 55.519M22.1844 22.5922L3.84138 55.4201M22.1844 22.5922L22.1132 22.6634L22.1115 22.665L22.111 22.6656C14.5515 30.3354 8.23339 38.7896 3.88796 48.8544M22.1844 22.5922L3.92601 49.0189M3.85646 55.519L3.84138 55.4201M3.85646 55.519C3.85654 55.519 3.85661 55.5189 3.85669 55.5189L3.84138 55.4201M3.85646 55.519C3.4718 55.5785 3.10699 55.5392 2.81165 55.3813C2.51357 55.2219 2.29576 54.9466 2.20117 54.5551L2.20116 54.5551C1.79674 52.8771 1.43149 51.1892 1.05956 49.4704C0.91656 48.8096 0.772572 48.1441 0.62499 47.473L0.603409 47.3748L0.701655 47.3537C1.10369 47.2674 1.48695 47.1852 1.86666 47.1038C2.34331 47.0017 2.81435 46.9007 3.30984 46.7941L3.40598 46.7735L3.42827 46.8692C3.5423 47.3594 3.649 47.8209 3.76852 48.3379C3.8068 48.5035 3.84639 48.6747 3.88796 48.8544M3.84138 55.4201C3.10179 55.5346 2.47509 55.263 2.29838 54.5316C1.89425 52.8548 1.52938 51.1687 1.15754 49.4503C1.02142 48.8213 0.884369 48.188 0.744117 47.5492C0.743964 47.5492 0.743811 47.5493 0.743657 47.5493L0.722656 47.4515L0.820323 47.43C0.820358 47.4302 0.820393 47.4304 0.820428 47.4305C1.18751 47.3517 1.53984 47.2762 1.88919 47.2013C2.36535 47.0992 2.83597 46.9984 3.33087 46.8919C3.44489 47.382 3.55156 47.8434 3.67107 48.3603C3.71866 48.5662 3.76827 48.7808 3.8212 49.0095C3.8434 48.9578 3.86565 48.9061 3.88796 48.8544M3.88796 48.8544C3.90046 48.9085 3.91313 48.9633 3.92601 49.0189M10.1508 54.0587C10.1182 54.0658 10.0856 54.073 10.0531 54.08C10.0531 54.0802 10.0532 54.0804 10.0532 54.0805L10.1508 54.0587ZM10.1508 54.0587L10.1295 53.961C10.1293 53.9611 10.1292 53.9611 10.129 53.9611C10.1363 53.9936 10.1435 54.0261 10.1508 54.0587ZM3.92601 49.0189C3.90375 49.0707 3.88154 49.1226 3.85938 49.1745L3.92601 49.0189ZM22.1839 22.7341C22.2073 22.758 22.2307 22.7817 22.2541 22.8054L22.2546 22.8049L22.1839 22.7341ZM22.1822 22.7358L22.1126 22.8043C22.113 22.8047 22.1133 22.805 22.1137 22.8054C22.1365 22.7822 22.1594 22.759 22.1822 22.7358Z" fill="white" stroke="white" stroke-width="0.2"/>
<path d="M59.0407 75.5129H59.126C59.6498 75.5129 60.1621 75.5152 60.6665 75.5174C61.7585 75.5223 62.8135 75.527 63.8693 75.508C66.6954 75.4575 69.3466 74.8018 71.6273 73.0836C74.1116 71.2099 75.3516 68.5987 75.802 65.5728C76.4255 61.371 75.6627 57.3118 74.3838 53.3166C74.0231 52.1899 73.608 51.0816 73.1856 49.9535C72.9898 49.4308 72.7925 48.9039 72.5982 48.3689L72.5663 48.281L72.6519 48.2433L75.1144 47.1568L75.2131 47.1133L75.2491 47.215C75.4703 47.8408 75.696 48.4627 75.9211 49.0829C76.432 50.4908 76.9398 51.89 77.3855 53.3068C78.324 56.2895 78.8791 59.3544 78.8922 62.4929C78.9103 66.6489 78.0184 70.5383 75.131 73.7474L75.1309 73.7474C72.9287 76.1938 70.1187 77.5098 66.9323 78.0839M59.0407 75.5129L66.9146 77.9855M59.0407 75.5129L59.0272 75.597C58.9662 75.9774 58.8923 76.4319 58.8137 76.9148C58.7647 77.2163 58.7138 77.5289 58.6632 77.8415L58.6219 77.924L58.7165 77.9669C58.7579 77.9857 58.7911 78.0034 58.8234 78.0207C58.8366 78.0277 58.8496 78.0346 58.863 78.0416C58.9058 78.0637 58.9548 78.0869 59.0107 78.0943M59.0407 75.5129L59.0245 77.9953M66.9323 78.0839L66.9146 77.9855M66.9323 78.0839C66.9323 78.0839 66.9323 78.0839 66.9323 78.0839L66.9146 77.9855M66.9323 78.0839C64.2906 78.5609 61.6482 78.4634 59.0107 78.0943M66.9146 77.9855C64.2867 78.46 61.6556 78.3635 59.0245 77.9953M59.0107 78.0943C59.011 78.0944 59.0113 78.0944 59.0116 78.0945L59.0245 77.9953M59.0107 78.0943L59.0245 77.9953" fill="white" stroke="white" stroke-width="0.2"/>
<path d="M48.2734 7.43185L48.3499 7.37962L48.3771 7.45329C48.8891 7.26438 49.3901 7.07364 49.8846 6.88533C50.9793 6.46848 52.0427 6.06357 53.1262 5.71701C57.0933 4.44912 61.1181 3.62283 65.2985 4.19909L65.3121 4.10003L65.2985 4.19909C68.9705 4.70486 71.9823 6.28554 73.8613 9.60459L73.8613 9.60461C75.0181 11.6473 75.5107 13.8812 75.5075 16.2181V16.2181C75.5064 17.2705 75.455 18.3205 75.4026 19.3897C75.3784 19.8857 75.3539 20.3859 75.3341 20.8924L75.3306 20.9814L75.4187 20.9951C75.7531 21.0471 76.088 21.0995 76.4261 21.1524C76.9163 21.229 77.4132 21.3067 77.9255 21.3861L78.0237 21.4014L78.0395 21.3033C78.4761 18.597 78.5652 15.9647 78.136 13.3191C77.105 6.96622 72.8543 2.64127 66.5391 1.49815L66.5213 1.59655L66.5391 1.49815C63.4213 0.934117 60.3307 1.12044 57.2467 1.69294L57.2467 1.69295C53.7961 2.3345 50.5063 3.46471 47.2569 4.88379L47.165 4.92389L47.2053 5.01563C47.3171 5.27027 47.4272 5.52095 47.5369 5.77049C47.7598 6.2779 47.9807 6.78057 48.2091 7.30208L48.1612 7.31974L48.2718 7.43021L48.2734 7.43185Z" fill="white" stroke="white" stroke-width="0.2"/>
<path d="M18.2392 76.152L18.2424 76.1883L18.4584 78.6754L18.4667 78.7715L18.371 78.7833C16.0405 79.0713 13.8145 78.8786 11.6318 78.3575C8.00936 77.4933 5.30599 75.6359 3.49142 73.1274C1.6776 70.6199 0.755984 67.4678 0.68529 64.0187L18.2392 76.152ZM18.2392 76.152L18.2135 76.1262M18.2392 76.152L18.2135 76.1262M18.2135 76.1262L18.2118 76.1246L18.1851 76.0979L18.1474 76.0955C17.6287 76.063 17.1186 76.0426 16.6152 76.0225C15.5365 75.9793 14.4889 75.9374 13.4551 75.7806L13.4551 75.7806C9.2888 75.1502 6.15754 73.0666 4.53171 69.0628L4.5317 69.0628C3.50107 66.526 3.38739 63.8555 3.61909 61.1486L3.61909 61.1486C3.66219 60.6447 3.72238 60.1427 3.78428 59.6264C3.81384 59.3798 3.84379 59.13 3.87246 58.8752L3.88301 58.7814L3.79001 58.7655C3.35694 58.6911 2.94549 58.6208 2.54042 58.5516C2.08937 58.4746 1.64624 58.3989 1.19002 58.3204L1.08755 58.3028M18.2135 76.1262L1.08755 58.3028M1.08755 58.3028L1.07393 58.4058M1.08755 58.3028L1.07393 58.4058M1.07393 58.4058C1.03736 58.6824 0.996933 58.9531 0.957091 59.2199C0.871433 59.7935 0.788497 60.3488 0.752572 60.9045L1.07393 58.4058ZM0.75257 60.9045C0.685293 61.9399 0.663963 62.9818 0.68529 64.0186L0.75257 60.9045Z" fill="white" stroke="white" stroke-width="0.2"/>
<path d="M1.30545 18.4801L1.29441 18.3833C0.828496 14.2986 1.54749 10.2694 3.55997 7.09188C5.57401 3.91186 8.87924 1.59202 13.5682 0.923697C15.0795 0.707795 16.6281 0.722402 18.1556 0.736811L1.30545 18.4801ZM1.30545 18.4801L1.40248 18.4716C1.59519 18.4548 1.78809 18.4379 1.98076 18.4211C2.60937 18.3661 3.23547 18.3114 3.8444 18.2576H3.93633L3.94148 18.1631C3.96741 17.687 3.98349 17.2185 3.99937 16.7559C4.03389 15.7502 4.06746 14.7722 4.19923 13.8039L4.19924 13.8039C4.76666 9.61572 6.7132 6.37481 10.7304 4.65385L10.7304 4.65385C13.3321 3.53884 16.0722 3.40397 18.8622 3.64055C19.3714 3.6839 19.8781 3.7423 20.4014 3.80262C20.6468 3.83091 20.8959 3.85961 21.1506 3.88739L21.244 3.89757L21.26 3.80502C21.4171 2.89696 21.5594 2.07888 21.7132 1.19696L21.7313 1.09315L21.6267 1.0805C21.3063 1.04177 20.9902 0.994925 20.6774 0.948566C19.9848 0.845908 19.3081 0.745626 18.6359 0.741074L1.30545 18.4801Z" fill="white" stroke="white" stroke-width="0.2"/>
<path d="M31.6503 73.5564C31.8446 73.9851 32.0406 74.4175 32.2492 74.877V75.0191L32.3941 74.9464C32.9206 74.6823 33.4411 74.4211 33.9601 74.1607C34.9557 73.6611 35.9455 73.1644 36.9609 72.6557L37.0535 72.6093L37.0038 72.5183C36.5855 71.7526 36.2112 71.0697 35.84 70.3924C35.8003 70.3199 35.7606 70.2475 35.7209 70.1751L35.6745 70.0905L35.5883 70.1338C34.9226 70.4685 34.2749 70.7939 33.6347 71.1157C32.8193 71.5254 32.0161 71.9291 31.2031 72.3378L31.1173 72.381L31.157 72.4685C31.3246 72.8378 31.4868 73.1958 31.6503 73.5564Z" fill="white" stroke="white" stroke-width="0.2"/>
<path d="M14.7284 47.8803C15.4538 47.3148 16.1057 46.8069 16.8119 46.2586H16.9763L16.86 46.0996C15.8439 44.7104 14.9014 43.4211 13.9442 42.1105L13.8864 42.0313L13.8061 42.0875C13.2475 42.4788 12.7288 42.8408 12.1978 43.2114C12.0071 43.3445 11.8148 43.4787 11.6185 43.6157L11.5349 43.6741L11.5949 43.7566C12.4947 44.9924 13.3585 46.1769 14.242 47.3885C14.3563 47.5453 14.471 47.7025 14.5861 47.8604L14.6469 47.9438L14.7284 47.8803Z" fill="white" stroke="white" stroke-width="0.2"/>
<path d="M27.9015 17.4337L27.8716 17.3988H27.8256H27.824H27.7854L27.7568 17.4247C26.4674 18.593 25.2615 19.686 23.9934 20.8363L23.9176 20.905L23.988 20.9792C24.2567 21.2627 24.5188 21.5388 24.7792 21.8133C25.1263 22.1791 25.4705 22.5419 25.8238 22.9149L25.891 22.9857L25.9634 22.9203C27.2185 21.788 28.4048 20.7162 29.6336 19.6052L29.7059 19.5399L29.6425 19.4659C29.279 19.042 28.9334 18.6385 28.5799 18.2257C28.359 17.9678 28.135 17.7062 27.9015 17.4337Z" fill="white" stroke="white" stroke-width="0.2"/>
<path d="M5.13443 32.2659L5.03972 32.309L5.08643 32.4019C5.48557 33.196 5.87666 33.9736 6.26686 34.7493C6.63792 35.4871 7.00816 36.2232 7.38373 36.9703L7.43027 37.0629L7.52114 37.0131C8.22109 36.6295 8.84022 36.2891 9.4586 35.949C9.592 35.8757 9.72536 35.8023 9.85948 35.7286L9.94398 35.6821L9.90063 35.596C9.49914 34.7983 9.10508 34.0159 8.71326 33.2379C8.37217 32.5607 8.03279 31.8868 7.69167 31.2092L7.64846 31.1233L7.56097 31.1631C7.34918 31.2594 7.14189 31.3536 6.9366 31.4469C6.33936 31.7184 5.7591 31.9822 5.13443 32.2659Z" fill="white" stroke="white" stroke-width="0.2"/>
<path d="M68.7735 36.0052L68.7814 35.9998L68.7881 35.9931L68.7898 35.9915L68.8501 35.9312L68.8001 35.8621C68.2298 35.0743 67.6695 34.2996 67.1097 33.5256C66.68 32.9315 66.2506 32.3378 65.8172 31.7387L65.7568 31.6554L65.6752 31.7181C65.3785 31.9461 65.0961 32.163 64.8201 32.375C64.3932 32.703 63.9816 33.0192 63.5562 33.3462L63.4791 33.4054L63.5362 33.4842C64.5164 34.8357 65.4621 36.1398 66.4325 37.4767L66.4893 37.555L66.5695 37.5007C66.9533 37.2405 67.3154 36.9947 67.6722 36.7524C68.0389 36.5035 68.4 36.2583 68.7735 36.0052Z" fill="white" stroke="white" stroke-width="0.2"/>
<path d="M46.2319 63.2143L46.053 62.9841V63.2265C45.3657 63.728 44.6923 64.2191 44.0216 64.7081C43.3828 65.1739 42.7465 65.6379 42.1032 66.1074L42.0242 66.165L42.08 66.2453C42.6134 67.0127 43.0994 67.7114 43.6067 68.4396L43.6653 68.5236L43.7479 68.4631C44.2756 68.0762 44.7886 67.7002 45.2939 67.3299C46.1563 66.6979 46.9962 66.0825 47.8484 65.4572L47.9313 65.3964L47.8681 65.3152C47.6325 65.0125 47.4083 64.7248 47.1887 64.443C46.8668 64.0299 46.5549 63.6296 46.2319 63.2143Z" fill="white" stroke="white" stroke-width="0.2"/>
<path d="M51.6583 62.202L51.7315 62.1341L51.7952 62.2037C52.4619 61.5935 53.1081 61.0016 53.747 60.4164C54.3481 59.8658 54.9428 59.3211 55.5422 58.7725L55.6195 58.7017L55.5453 58.6278C55.4432 58.5262 55.3425 58.4261 55.2431 58.3271C54.689 57.7758 54.1724 57.2617 53.6522 56.7429L53.5845 56.6754L53.514 56.74C52.3114 57.8412 51.1333 58.9194 49.911 60.037L49.8392 60.1026L49.9029 60.1762C50.3059 60.6421 50.6938 61.0896 51.1044 61.5632C51.2617 61.7447 51.4224 61.9301 51.5885 62.1218L51.5834 62.1264L51.6566 62.2003L51.6583 62.202Z" fill="white" stroke="white" stroke-width="0.2"/>
<path d="M33.4119 16.5185H33.6135L33.5529 16.4388C34.2114 15.9628 34.859 15.4945 35.5031 15.0287C36.161 14.5529 36.8154 14.0796 37.4744 13.6034L37.5535 13.5462L37.4983 13.4658C36.9583 12.6787 36.487 11.993 35.983 11.26L35.9249 11.1754L35.8418 11.2358C34.5374 12.1836 33.2911 13.0889 32.0198 14.0124L31.7381 14.217L31.6553 14.2772L31.7174 14.3586C32.2631 15.0742 32.7529 15.7172 33.2697 16.3967L33.1011 16.5185H33.4102H33.4119Z" fill="white" stroke="white" stroke-width="0.2"/>
<path d="M57.1224 25.8526L57.0518 25.9199L57.1174 25.9921C57.5867 26.509 58.046 27.0145 58.5029 27.5174C59.1455 28.2246 59.7833 28.9265 60.4373 29.6475L60.5026 29.7194L60.5764 29.6563C60.768 29.4925 60.9557 29.332 61.1412 29.1734C61.6322 28.7536 62.108 28.3467 62.602 27.9252L62.6803 27.8584L62.6113 27.7821C61.443 26.4895 60.3402 25.2688 59.203 24.0089L59.1341 23.9326L59.0597 24.0036C58.5189 24.52 58.0106 25.005 57.466 25.5247C57.3532 25.6323 57.2389 25.7414 57.1224 25.8526Z" fill="white" stroke="white" stroke-width="0.2"/>
<path d="M17.8368 51.6484L17.7592 51.7158L17.8286 51.7915C18.4849 52.5072 19.1149 53.195 19.7288 53.8652C20.2323 54.415 20.725 54.9529 21.2124 55.4846L21.2819 55.5603L21.3557 55.4888C21.6303 55.2228 21.8927 54.9683 22.1483 54.7205C22.5326 54.3479 22.9013 53.9904 23.2718 53.6317L23.3416 53.5641L23.276 53.4924C23.1449 53.3489 23.0141 53.2058 22.8835 53.063C21.9205 52.0095 20.9693 50.969 19.9952 49.9056L19.9295 49.8339L19.856 49.8976C19.2084 50.4587 18.6104 50.9774 17.9531 51.5476L17.8368 51.6484Z" fill="white" stroke="white" stroke-width="0.2"/>
<path d="M2.02223 23.2438L1.91908 23.2678L1.94899 23.3694C2.15744 24.0774 2.35799 24.7594 2.55607 25.4329C2.76994 26.1602 2.98093 26.8777 3.19583 27.6074L3.22563 27.7085L3.32508 27.6734C3.99376 27.437 4.58746 27.2265 5.16992 27.02C5.38995 26.942 5.60837 26.8646 5.82863 26.7865L5.91741 26.755L5.89131 26.6645C5.70195 26.0081 5.51965 25.3749 5.33943 24.7491C5.14289 24.0665 4.94883 23.3926 4.75083 22.7064L4.72451 22.6152L4.63204 22.6367C4.18533 22.7409 3.75049 22.842 3.30302 22.9459C2.89299 23.0412 2.47234 23.1389 2.02223 23.2438Z" fill="white" stroke="white" stroke-width="0.2"/>
<path d="M26.7872 74.1916L26.7564 74.1013L26.6648 74.1278C25.9789 74.3265 25.3166 74.5187 24.6607 74.709C24.0022 74.9001 23.3501 75.0894 22.687 75.2814L22.5953 75.3079L22.6176 75.4008C22.8303 76.2876 23.0234 77.0911 23.241 77.9959L23.2656 78.098L23.3663 78.0685C24.8177 77.6448 26.179 77.2471 27.583 76.8364L27.6834 76.8071L27.6495 76.7081C27.5019 76.2762 27.3643 75.8753 27.2286 75.4798C27.0828 75.0548 26.9391 74.636 26.7872 74.1916Z" fill="white" stroke="white" stroke-width="0.2"/>
<path d="M73.9112 44.5603C73.2835 43.383 72.6817 42.2541 72.0495 41.0677V40.9184L71.8997 41.0043C71.5142 41.2256 71.144 41.438 70.7781 41.6478C70.3785 41.877 69.9842 42.1032 69.5811 42.3346L69.4967 42.3831L69.5428 42.4687C70.0399 43.3929 70.5093 44.2666 70.9827 45.1479C71.106 45.3776 71.2297 45.6077 71.3541 45.8394L71.4 45.9248L71.4868 45.8816C72.3147 45.4692 73.0608 45.0978 73.8675 44.6969L73.9596 44.6512L73.9112 44.5603Z" fill="white" stroke="white" stroke-width="0.2"/>
</svg>
