<svg width="78" height="74" viewBox="0 0 78 74" fill="none" xmlns="http://www.w3.org/2000/svg">
<path d="M78 35.607V38.4138C77.9543 38.5572 77.8888 38.6991 77.8659 38.8457C77.1393 43.6187 74.6897 47.1473 70.5004 49.3475C69.7311 49.7514 69.559 50.1427 69.6336 50.9785C70.0739 55.9199 67.4978 60.5713 63.1745 62.6966C62.6855 62.9367 62.4752 63.2517 62.3381 63.76C60.9503 68.9119 57.6995 72.213 52.6083 73.2655C47.5492 74.3102 43.3173 72.5747 40.0648 68.4426C39.6901 67.9654 39.3763 67.44 39.0457 66.9535C38.9756 66.9659 38.9391 66.9613 38.9299 66.9769C38.802 67.1686 38.6801 67.3667 38.5506 67.5585C35.4642 72.1381 31.2094 74.2369 25.8395 73.3356C20.5382 72.4453 17.1776 69.1193 15.6558 63.8411C15.5522 63.4825 15.3617 63.0209 15.0784 62.8681C10.2005 60.2236 7.92613 56.079 8.39533 50.5123C8.44104 49.9697 8.29632 49.7529 7.83473 49.5315C4.40713 47.8818 2.04742 45.2091 0.781494 41.562C0.429593 40.5469 0.255928 39.4663 0 38.4153C0 37.4797 0 36.5442 0 35.6086C0.0457013 35.4636 0.111206 35.3217 0.132533 35.1735C0.850044 30.4286 3.27831 26.9077 7.43408 24.7123C8.26432 24.2741 8.44256 23.8593 8.3603 22.9659C7.92004 18.1523 10.4549 13.5399 14.6899 11.399C15.2414 11.1199 15.5187 10.794 15.6817 10.1859C16.9598 5.41604 19.9273 2.23665 24.5767 0.945553C29.191 -0.334625 33.3224 0.819251 36.7698 4.24034C37.6122 5.07612 38.2794 6.09589 39.0548 7.06577C39.1478 6.92388 39.259 6.76171 39.361 6.59331C42.2082 1.9778 47.3283 -0.400115 52.5322 0.717897C57.6202 1.81096 60.8848 5.04181 62.3366 10.1734C62.4387 10.5321 62.6291 10.9952 62.9125 11.1496C67.8147 13.805 70.051 17.9106 69.594 23.5849C69.5559 24.0652 69.6839 24.2538 70.0921 24.4487C73.6553 26.1562 76.0653 28.9395 77.3175 32.7489C77.6222 33.6735 77.773 34.6496 77.9939 35.6039L78 35.607ZM9.41905 27.1884C5.26784 29.0144 2.70552 33.3523 3.07418 37.8384C3.40323 41.8364 6.34182 45.9607 9.45103 46.7622C9.55615 46.5626 9.65974 46.3568 9.77247 46.1541C10.6911 44.4997 11.9067 43.1228 13.459 42.0719C14.2314 41.5495 15.1241 41.7179 15.6131 42.4367C16.0793 43.1228 15.93 43.9898 15.2414 44.5823C15.1058 44.6993 14.9611 44.8053 14.8179 44.9129C10.2843 48.3667 10.167 55.2635 14.5818 58.8732C14.7889 59.0432 15.0205 59.1804 15.2962 59.3722C15.3404 59.1695 15.3678 59.0744 15.38 58.9792C15.7852 55.9012 17.0877 53.2863 19.3103 51.1812C21.6975 48.9171 24.534 47.7446 27.8016 47.7336C28.7218 47.7305 29.3464 48.3106 29.4042 49.1542C29.4637 50.0352 28.8893 50.701 27.9509 50.8242C27.7255 50.8538 27.4954 50.8522 27.2669 50.8647C21.539 51.1781 17.2995 56.8726 18.5182 62.6171C19.5876 67.6583 23.9536 70.8798 29.031 70.3745C33.7565 69.9036 37.472 65.5922 37.4751 60.537C37.4827 44.8661 37.4797 29.1937 37.472 13.5228C37.472 12.9802 37.4294 12.4313 37.3502 11.8949C36.622 6.94571 32.4099 3.41859 27.4741 3.61038C22.5688 3.80062 18.7101 7.68637 18.3232 12.8242C17.9637 17.5863 21.3897 22.0802 26.097 22.9955C26.717 23.1156 27.3583 23.1171 27.986 23.2013C28.9914 23.337 29.6038 24.2024 29.3738 25.1317C29.1849 25.8927 28.5694 26.2981 27.6173 26.2887C22.0814 26.2326 17.0953 22.2205 15.6984 16.685C15.5369 16.0442 15.4303 15.3877 15.2627 14.566C14.6717 15.0961 14.1248 15.5093 13.6677 16.0083C10.1426 19.866 10.6941 25.9628 14.8377 29.1266C15.8965 29.9343 16.163 30.8013 15.6024 31.6075C15.0266 32.437 14.0897 32.4432 13.0081 31.6262C11.468 30.4629 10.3056 28.9754 9.42056 27.1884H9.41905ZM40.5264 45.8937C40.5264 46.1588 40.5264 46.335 40.5264 46.5112C40.5264 51.2405 40.5234 55.9698 40.534 60.6992C40.534 61.2153 40.595 61.7361 40.6696 62.2475C41.3429 66.8661 45.4363 70.4322 50.0445 70.4229C54.8538 70.4135 58.9197 66.8973 59.5504 62.1477C59.6829 61.1498 60.1232 60.5838 61.0478 60.2329C65.193 58.6596 67.4384 54.2811 66.4132 49.8636C66.0095 48.1219 66.2212 47.7196 67.8452 47.1442C71.9446 45.691 74.8009 41.799 74.9426 37.472C75.1025 32.6007 72.2264 28.3813 67.6898 26.8329C66.3812 26.3854 66.008 25.7617 66.3081 24.5205C67.478 19.6695 65.3803 15.4969 60.8331 13.6928C60.079 13.3934 59.7058 12.885 59.5808 12.0945C59.4849 11.4817 59.3721 10.8626 59.1817 10.2764C57.7056 5.74349 53.1948 2.92117 48.6734 3.67899C43.9814 4.46487 40.5615 8.49252 40.5356 13.3216C40.5097 18.051 40.5279 22.7803 40.531 27.5096C40.531 27.7061 40.5676 27.9026 40.5889 28.124C40.8753 28.124 41.1023 28.124 41.3292 28.124C43.2076 28.124 45.0859 28.1396 46.9642 28.1022C47.1958 28.0975 47.5005 27.8558 47.636 27.6375C48.1768 26.7596 48.6476 25.8381 49.1792 24.954C49.4016 24.5844 49.3666 24.3458 49.1076 23.9981C48.1189 22.6649 47.7929 21.1618 48.1433 19.512C48.7313 16.7381 51.481 14.8622 54.2383 15.3643C57.0383 15.8742 58.9974 18.6435 58.5571 21.4721C58.1001 24.4098 55.7693 26.323 52.8384 26.0922C52.2305 26.0439 51.9335 26.2185 51.6593 26.7456C51.0377 27.9353 50.34 29.083 49.6956 30.2602C49.3239 30.9401 48.7999 31.266 48.0275 31.2519C46.6062 31.227 45.1849 31.2441 43.7636 31.2441C42.7064 31.2441 41.6492 31.2441 40.5874 31.2441V35.4495H41.4755C46.5011 35.4495 51.5283 35.4324 56.5539 35.4698C57.2577 35.4745 57.5928 35.2874 57.8975 34.6169C58.8968 32.4074 61.223 31.2488 63.5721 31.6792C65.9287 32.1111 67.6761 34.0665 67.9213 36.5457C68.1498 38.8582 66.7559 41.1597 64.5882 42.0485C62.3808 42.9544 59.8916 42.273 58.449 40.3223C58.059 39.7953 57.7832 39.1794 57.4618 38.6149H40.5919V42.772C43.0872 42.772 45.5231 42.7907 47.9575 42.7611C48.7938 42.7517 49.3453 43.0885 49.7413 43.8245C50.3415 44.9378 51.024 46.0075 51.5846 47.1396C51.9076 47.7929 52.2869 47.9613 52.9953 47.9161C56.6849 47.6853 59.4453 51.1984 58.4033 54.7785C57.7634 56.9756 56.2858 58.3259 54.0814 58.6502C51.8116 58.9839 49.9653 58.0967 48.7801 56.0727C47.6132 54.08 47.7198 52.0435 49.0314 50.1459C49.3772 49.6453 49.3605 49.3272 49.065 48.8548C48.5592 48.0471 48.1387 47.1832 47.6345 46.3739C47.4989 46.1556 47.1927 45.9155 46.9612 45.9108C44.8559 45.875 42.7506 45.8906 40.5295 45.8906L40.5264 45.8937ZM53.3319 18.4252C52.0691 18.4159 51.0377 19.4575 51.0484 20.7376C51.0575 21.9851 52.063 23.0064 53.2908 23.0158C54.5506 23.0251 55.5942 21.971 55.5804 20.7018C55.5667 19.4543 54.5613 18.4346 53.3319 18.4252ZM53.271 55.594C54.5369 55.6112 55.5804 54.5758 55.582 53.3019C55.582 52.0607 54.5765 51.0222 53.3533 51.0035C52.0919 50.9832 51.0514 52.0186 51.0499 53.2972C51.0484 54.5462 52.0462 55.5769 53.2725 55.594H53.271ZM64.8852 36.9932C64.8746 35.7411 63.8006 34.6668 62.5849 34.6917C61.3891 34.7167 60.3669 35.7692 60.3532 36.9901C60.3395 38.2344 61.3998 39.3306 62.6185 39.3322C63.8372 39.3322 64.8944 38.2438 64.8852 36.9948V36.9932Z" fill="white"/>
</svg>
